<?xml version="1.0" standalone="no"?>
<!DOCTYPE svg PUBLIC "-//W3C//DTD SVG 20010904//EN"
 "http://www.w3.org/TR/2001/REC-SVG-20010904/DTD/svg10.dtd">
<svg version="1.0" xmlns="http://www.w3.org/2000/svg"
 width="1920.000000pt" height="1536.000000pt" viewBox="0 0 1920.000000 1536.000000"
 preserveAspectRatio="xMidYMid meet">
<metadata>
Created by potrace 1.16, written by Peter Selinger 2001-2019
</metadata>
<g transform="translate(0.000000,1536.000000) scale(0.100000,-0.100000)"
fill="#000000" stroke="none">
<path d="M0 7680 l0 -7680 9600 0 9600 0 0 7680 0 7680 -9600 0 -9600 0 0
-7680z m10120 4591 c169 -20 405 -59 483 -81 48 -14 71 -48 65 -97 -3 -21 -31
-153 -62 -293 -40 -179 -63 -261 -76 -274 -26 -26 -55 -25 -270 12 -249 42
-405 55 -655 56 -864 2 -1667 -267 -2360 -787 -66 -50 -122 -93 -125 -97 -3
-3 -32 -28 -65 -55 -94 -78 -299 -280 -394 -389 -558 -639 -893 -1421 -960
-2241 -32 -392 -16 -714 54 -1085 102 -535 334 -1078 654 -1526 143 -200 235
-309 423 -499 127 -130 138 -143 138 -177 0 -41 1 -41 -214 -273 -195 -210
-189 -205 -232 -205 -36 0 -47 9 -189 153 -83 83 -166 170 -185 192 -112 129
-155 181 -226 275 -489 644 -811 1431 -908 2220 -43 347 -46 764 -7 1097 86
743 334 1420 744 2038 454 683 1082 1233 1822 1595 535 262 1054 404 1686 459
175 16 659 6 859 -18z m1893 -349 l22 -23 3 -2672 c2 -1920 0 -2699 -8 -2767
-45 -384 -234 -721 -535 -954 -188 -147 -362 -225 -612 -275 -114 -24 -279
-28 -303 -8 -15 12 -168 192 -264 311 -27 34 -52 63 -55 66 -6 5 -144 170
-171 204 -8 11 -31 38 -51 60 -19 23 -80 95 -134 161 -55 66 -102 122 -105
125 -3 3 -21 25 -41 50 -20 25 -45 55 -55 67 -11 12 -26 30 -34 40 -8 10 -77
92 -153 183 -76 91 -162 193 -190 228 -29 35 -57 69 -62 75 -6 7 -80 95 -165
197 -85 102 -162 193 -170 202 -8 10 -18 18 -22 18 -4 0 -9 -532 -11 -1182 -3
-1156 -4 -1185 -24 -1278 -116 -526 -427 -932 -889 -1163 -183 -91 -336 -137
-543 -163 -170 -21 -214 -19 -248 10 l-28 24 0 2714 c0 2605 1 2717 19 2813
106 573 537 1018 1099 1135 105 22 272 36 311 26 17 -4 61 -48 128 -129 93
-112 140 -168 267 -316 25 -30 57 -69 71 -86 22 -29 246 -298 303 -365 74 -86
126 -148 143 -169 10 -13 33 -40 50 -60 17 -20 100 -119 185 -221 84 -102 158
-190 164 -196 5 -7 17 -20 25 -30 8 -11 76 -91 150 -179 74 -89 151 -180 170
-203 19 -23 38 -42 42 -42 4 0 8 505 8 1123 0 701 4 1154 10 1207 44 363 200
694 450 953 275 286 607 453 1000 502 148 19 224 15 253 -13z m872 -994 c335
-340 572 -661 795 -1078 238 -445 395 -914 489 -1460 67 -389 69 -964 5 -1390
-101 -670 -334 -1281 -702 -1845 -118 -180 -298 -419 -386 -512 -12 -12 -64
-68 -116 -125 -80 -86 -197 -200 -339 -328 -101 -92 -342 -275 -466 -356 -33
-21 -64 -42 -70 -47 -38 -30 -260 -155 -410 -232 -363 -185 -718 -310 -1130
-399 -589 -127 -1266 -130 -1859 -10 -180 36 -184 44 -142 239 99 456 97 449
136 465 17 7 45 10 63 7 446 -81 458 -82 847 -82 366 0 410 4 700 56 624 112
1208 375 1715 773 50 39 92 73 95 76 3 3 43 38 90 79 192 168 427 430 584 651
77 108 173 256 189 290 4 8 16 29 27 45 37 56 188 370 234 485 123 314 186
547 243 915 27 173 28 194 28 535 -1 337 -2 364 -28 535 -16 99 -39 230 -52
290 -157 726 -518 1394 -1037 1918 -135 137 -150 156 -155 193 -6 45 -1 51
152 214 29 30 85 91 125 135 115 126 126 135 168 135 35 0 47 -10 207 -172z"/>
<path d="M9370 12130 c-803 -43 -1582 -302 -2241 -746 -378 -254 -683 -532
-994 -905 -12 -13 -41 -51 -65 -84 -25 -33 -49 -65 -55 -71 -17 -20 -84 -116
-148 -214 -257 -392 -459 -850 -578 -1307 -52 -204 -65 -266 -94 -458 -38
-257 -48 -393 -47 -675 1 -272 12 -423 52 -679 140 -904 570 -1764 1207 -2413
58 -60 110 -108 115 -108 9 0 49 42 177 185 l71 80 -83 84 c-45 46 -87 90 -92
96 -56 64 -118 135 -135 155 -12 14 -34 41 -49 60 -14 19 -28 37 -31 40 -3 3
-35 46 -71 95 -518 716 -788 1540 -789 2410 -1 705 175 1382 521 2005 44 79
217 347 253 391 12 14 28 36 36 49 8 12 20 28 25 34 6 6 26 31 45 56 198 255
534 580 785 758 161 115 182 129 274 186 537 331 1145 533 1781 592 135 12
238 15 450 10 279 -5 313 -8 568 -47 78 -12 145 -19 148 -16 12 11 82 342 75
350 -12 13 -290 55 -465 71 -217 20 -459 26 -646 16z"/>
<path d="M11695 11755 c-307 -57 -584 -203 -797 -421 -206 -212 -327 -434
-396 -728 l-26 -111 -5 -1318 -6 -1319 -29 -25 c-23 -19 -36 -24 -60 -19 -35
7 -62 34 -218 222 -59 71 -115 138 -125 149 -10 11 -119 142 -243 290 -124
149 -233 279 -242 290 -9 11 -127 153 -263 315 -135 162 -284 340 -330 395
-184 219 -280 334 -348 418 l-72 88 -81 -5 c-282 -20 -594 -174 -794 -393
-120 -131 -233 -330 -279 -493 -53 -188 -51 -67 -51 -2887 l0 -2613 46 0 c110
0 385 75 519 142 76 38 172 95 206 122 14 12 41 32 59 46 66 49 193 176 254
255 149 193 239 392 293 645 16 79 18 185 23 1393 l5 1309 30 24 c42 34 79 26
130 -30 22 -24 101 -117 177 -207 75 -90 223 -268 330 -395 106 -127 211 -252
233 -279 22 -27 58 -70 81 -95 33 -37 303 -361 354 -424 8 -10 33 -40 55 -65
58 -67 104 -123 286 -341 89 -107 185 -221 212 -253 l51 -59 76 7 c178 16 406
98 566 203 120 79 247 206 332 332 98 145 155 278 194 453 21 91 21 109 25
2745 l4 2652 -53 -1 c-29 -1 -84 -7 -123 -14z"/>
<path d="M12664 10882 c-9 -6 -165 -177 -207 -227 -10 -11 -17 -24 -17 -30 0
-5 38 -48 83 -95 102 -105 211 -227 266 -300 224 -292 357 -504 481 -763 228
-476 348 -907 401 -1442 17 -177 15 -570 -5 -750 -48 -430 -146 -818 -297
-1171 -52 -124 -138 -300 -188 -389 -22 -38 -50 -88 -62 -110 -29 -53 -142
-227 -182 -280 -18 -24 -39 -53 -47 -65 -13 -20 -99 -130 -155 -199 -113 -139
-382 -408 -516 -516 -83 -67 -180 -142 -199 -155 -13 -8 -48 -33 -79 -56 -283
-204 -669 -401 -1026 -523 -424 -144 -849 -213 -1310 -212 -285 0 -445 14
-730 61 -81 13 -82 13 -88 -13 -38 -172 -67 -310 -67 -321 0 -14 98 -33 360
-68 143 -19 212 -22 515 -22 311 -1 369 2 525 22 220 29 351 53 510 91 1150
276 2149 1002 2767 2011 86 140 113 190 181 325 336 674 486 1349 469 2105
-20 861 -272 1654 -760 2385 -108 163 -203 284 -382 490 -41 47 -218 225 -225
225 -3 0 -10 -4 -16 -8z"/>
</g>
</svg>
